<?xml version="1.0" encoding="utf-8"?>
<!-- Generator: Adobe Illustrator 16.0.0, SVG Export Plug-In . SVG Version: 6.00 Build 0)  -->
<!DOCTYPE svg PUBLIC "-//W3C//DTD SVG 1.1//EN" "http://www.w3.org/Graphics/SVG/1.1/DTD/svg11.dtd">
<svg version="1.1" id="Layer_1" xmlns="http://www.w3.org/2000/svg" xmlns:xlink="http://www.w3.org/1999/xlink" x="0px" y="0px"
	 width="612px" height="792px" viewBox="0 0 612 792" enable-background="new 0 0 612 792" xml:space="preserve">
<title>Microsoft Outlook icon</title>
<path d="M611.904,205.997V638.28c0,9.489-3.303,17.491-9.82,23.763c-6.517,6.354-14.521,9.489-23.929,9.489H225.538V384.431
	l66.009,50.703c4.21,3.507,9.449,5.198,15.637,5.198c6.104,0,11.43-1.691,16.049-5.24L611.904,205.997z M225.538,122.618h352.617
	c8.707,0,16.214,2.599,22.401,7.921c6.191,5.281,9.654,12.376,10.232,21.041L306.772,394.001l-81.234-63.906V122.618
	L225.538,122.618z M290.939,434.9c4.62,3.549,9.943,5.24,16.049,5.24c6.188,0,11.427-1.691,15.635-5.198l66.012-50.703v287.102
	H36.018c-9.407,0-17.412-3.135-23.929-9.489c-6.519-6.271-9.82-14.273-9.82-23.763V205.805L290.939,434.9z M388.635,122.426v207.478
	L307.4,393.81L3.383,151.388c0.578-8.665,4.043-15.76,10.231-21.041c6.189-5.322,13.697-7.921,22.403-7.921H388.635L388.635,122.426
	z"/>
</svg>
