<?xml version="1.0" encoding="utf-8"?>
<!-- Generator: Adobe Illustrator 16.0.0, SVG Export Plug-In . SVG Version: 6.00 Build 0)  -->
<!DOCTYPE svg PUBLIC "-//W3C//DTD SVG 1.1//EN" "http://www.w3.org/Graphics/SVG/1.1/DTD/svg11.dtd">
<svg version="1.1" id="Layer_1" xmlns="http://www.w3.org/2000/svg" xmlns:xlink="http://www.w3.org/1999/xlink" x="0px" y="0px"
	 width="612px" height="792px" viewBox="0 0 612 792" enable-background="new 0 0 612 792" xml:space="preserve">
<title>Microsoft Word icon</title>
<path d="M611.747,76.007V720.97c0,5.497-1.95,9.94-5.81,13.486c-3.935,3.665-8.613,5.38-14.031,5.38h-333.61v-89.454h272.142v-40.73
	H258.063v-49.854h272.143v-40.691H258.258v-50.281h272.065v-40.226H258.258v-50.397h272.065v-40.693H258.258v-49.853h272.065
	v-40.653H258.258v-50.866h272.065v-38.744H258.258V56.323h333.727c5.806,0,10.522,1.871,13.952,5.807
	C610.031,65.99,611.785,70.706,611.747,76.007z M5.826,62.154c3.433-3.938,8.151-5.812,13.963-5.812h333.966v101.142H81.496v38.771
	h272.26v50.903H81.496v40.682h272.26v49.889H81.496v40.722h272.26v50.434H81.496v40.254h272.26v50.316H81.613v40.722h272.336v49.889
	H81.379v40.762h272.336v89.518H19.867c-5.42,0-10.102-1.717-14.041-5.383c-3.862-3.549-5.813-7.998-5.813-13.497V76.041
	C-0.025,70.736,1.73,66.017,5.826,62.154z"/>
</svg>
